<?xml version="1.0" standalone="no"?>
<!DOCTYPE svg PUBLIC "-//W3C//DTD SVG 1.1//EN" "http://www.w3.org/Graphics/SVG/1.1/DTD/svg11.dtd" >
<svg xmlns="http://www.w3.org/2000/svg" xmlns:xlink="http://www.w3.org/1999/xlink" version="1.1">
<metadata></metadata>
<defs>
<font id="ginora_sanssemi_bold" horiz-adv-x="1293" >
<font-face units-per-em="2048" ascent="1638" descent="-410" />
<missing-glyph horiz-adv-x="368" />
<glyph horiz-adv-x="0" />
<glyph horiz-adv-x="682" />
<glyph unicode=" "  horiz-adv-x="368" />
<glyph unicode="&#x09;" horiz-adv-x="368" />
<glyph unicode="&#xa0;" horiz-adv-x="368" />
<glyph unicode="!" horiz-adv-x="722" d="M232 114q0 52 37 90q38 37 91 37q52 0 90 -37q37 -38 37 -90q0 -53 -37 -91q-38 -37 -90 -37q-53 0 -91 37q-37 38 -37 91zM258 373v1111h203v-1111h-203z" />
<glyph unicode="#" horiz-adv-x="1738" d="M112 373v208h349l40 326h-360v207h385l45 369h209l-45 -369h328l45 369h210l-46 -369l352 -1v-207h-377l-40 -326h388v-208h-413l-45 -372h-209l45 373h-328l-46 -373h-210l47 373h-324zM670 581l328 -1l40 326h-328z" />
<glyph unicode="$" horiz-adv-x="1061" d="M69 331l183 80q29 -67 61 -102q54 -63 127 -87q17 -6 9 -4v408q-78 9 -147 42q-11 5 -20 10q-146 79 -189 232q-45 162 55 313q108 159 301 183v78h155v-76q56 -5 125 -36q155 -69 249 -255l-179 -90q-61 123 -150 163q-34 15 -45 16v-399q59 -9 117 -35q97 -43 157 -113 q111 -129 96 -286q-14 -147 -140 -251q-68 -57 -142 -85q-52 -20 -88 -24v-77h-155v78q-28 3 -73 18q-122 41 -213 145q-51 58 -94 154zM285 964q20 -72 93 -111l10 -6q36 -17 61 -20v377q-83 -15 -134 -92q-51 -74 -30 -148zM604 216q-6 -1 16 7q145 56 155 168 q7 74 -49 139q-29 35 -86 60q-27 12 -36 14v-388z" />
<glyph unicode="%" horiz-adv-x="1666" d="M64 905q0 128 91 220q92 91 220 91t220 -91q91 -92 91 -220q0 -129 -91 -221q-92 -90 -220 -90t-220 90q-91 92 -91 221zM229 905q0 -61 43 -104q42 -43 103 -43t103 43q43 43 43 104q0 60 -43 103q-42 43 -103 43t-103 -43q-43 -43 -43 -103zM402 0l621 1538h202 l-621 -1538h-202zM966 590q0 129 91 221q92 90 220 90t220 -90q91 -92 91 -221q0 -128 -91 -220q-92 -91 -220 -91t-220 91q-91 92 -91 220zM1131 590q0 -60 43 -103q42 -43 103 -43t103 43q43 43 43 103q0 61 -43 103q-43 44 -103 44t-103 -44q-43 -42 -43 -103z" />
<glyph unicode="&#x26;" horiz-adv-x="1372" d="M81 500q-1 208 145 357q52 50 90 71l-4 5l-3 4q-68 90 -68 203q0 142 99 243q101 100 242 101h1q141 0 240 -99q8 -6 35 -39l-156 -135l-24 27q-39 39 -95 39q-56 -1 -95 -41q-40 -39 -40 -95q0 -49 34 -87l511 -561l49 49l102 101l145 -145l-156 -157l159 -176 l-153 -139l-153 169l-35 -36l-11 -11q-49 -49 -108 -83q-115 -65 -249 -65q-207 0 -354 145q-147 147 -148 355zM288 501q0 -123 87 -208q84 -84 202 -86t205 77q1 2 6 7q7 6 10 8l48 48l-388 423q-41 -16 -84 -60q-87 -86 -86 -209z" />
<glyph unicode="'" horiz-adv-x="396" d="M107 1014h211v210h-107q0 44 31 75t76 31v104q-88 0 -149 -62q-62 -61 -62 -148v-210z" />
<glyph unicode="(" horiz-adv-x="823" d="M256 550q0 495 204 963h229q-234 -476 -224 -963q-10 -484 222 -959h-230q-201 466 -201 959z" />
<glyph unicode=")" horiz-adv-x="823" d="M134 1513h230q203 -468 203 -963q0 -493 -201 -959h-230q232 475 222 959q10 487 -224 963z" />
<glyph unicode="*" horiz-adv-x="700" d="M112 1216l34 154l129 -29v116h156v-116l129 29l34 -154l-114 -25l76 -116l-132 -86l-71 110l-71 -110l-132 86l76 116z" />
<glyph unicode="+" horiz-adv-x="1064" d="M76 817h362v361h203v-361h362l1 -202h-363v-364h-203v364h-361z" />
<glyph unicode="," horiz-adv-x="378" d="M106 0h107q0 -43 -31 -74q-31 -32 -76 -32v-103q88 0 149 61q62 62 62 148v211h-211v-211z" />
<glyph unicode="-" horiz-adv-x="720" d="M117 378v203h487v-203h-487z" />
<glyph unicode="&#xad;" horiz-adv-x="720" d="M117 378v203h487v-203h-487z" />
<glyph unicode="." horiz-adv-x="607" d="M128 124q0 62 43 106q44 43 105 43t105 -43q43 -44 43 -106q0 -61 -43 -105t-105 -44t-105 44t-43 105z" />
<glyph unicode="/" horiz-adv-x="1117" d="M50 -153l787 1613h233l-787 -1613h-233z" />
<glyph unicode="0" horiz-adv-x="1067" d="M96 534q0 224 126 383q129 161 311 161q183 0 312 -161q126 -159 126 -383q0 -223 -126 -382q-129 -161 -312 -161q-182 0 -311 161q-126 159 -126 382zM299 534q0 -143 71 -244q69 -96 163 -96q95 0 164 96q71 101 71 244q0 144 -71 245q-69 96 -164 96q-94 0 -163 -96 q-71 -101 -71 -245z" />
<glyph unicode="1" horiz-adv-x="554" d="M80 871v203h327v-1074h-204v871h-123z" />
<glyph unicode="2" horiz-adv-x="953" d="M48 0l358 401l216 240q30 39 30 90q0 63 -45 107q-44 44 -106 44q-63 0 -107 -44t-44 -133h-205v26q0 147 104 252q105 104 252 104q146 0 251 -104q104 -105 104 -252q0 -122 -120 -276v2l40 50l-17 -20l-99 -110l-9 -9l-145 -163h350v-205h-808z" />
<glyph unicode="3" horiz-adv-x="997" d="M96 395v26h203v-26q0 -83 58 -140q58 -59 141 -59q82 0 140 59q58 57 58 140q0 82 -58 140q-58 59 -140 59h-237l128 185l66 93l-1 -1h-286v203h307h368l-210 -300q96 -25 181 -132q85 -108 85 -247q0 -166 -117 -284q-119 -117 -284 -117q-166 0 -284 117 q-118 118 -118 284z" />
<glyph unicode="4" horiz-adv-x="917" d="M48 158l680 978v-775h109v-203h-109v-158h-203v158h-477zM411 361h114v164z" />
<glyph unicode="5" horiz-adv-x="991" d="M96 418h203q0 -106 58 -163q57 -59 138 -59q82 0 139 59q58 57 58 138q0 82 -58 139q-57 58 -139 58h-333l25 62l169 422h463v-203h-326l-31 -78h33q165 0 283 -117q117 -118 117 -283t-117 -282q-118 -117 -283 -117q-164 0 -282 117q-117 117 -117 307z" />
<glyph unicode="6" horiz-adv-x="1010" d="M96 402q0 85 34 164l205 508h219l-107 -265q6 2 58 2q168 0 289 -119q119 -121 119 -290q0 -168 -119 -289q-121 -119 -289 -119q-169 0 -290 119q-119 121 -119 289zM299 402q0 -85 60 -145t146 -60q85 0 145 60t60 145q0 86 -60 146t-145 60q-86 0 -146 -60t-60 -146z " />
<glyph unicode="7" horiz-adv-x="878" d="M80 871v203h750l-434 -1074h-219l352 871h-449z" />
<glyph unicode="8" horiz-adv-x="989" d="M96 389q0 111 57 206q55 93 125 132q-22 37 -22 105q0 100 71 172q71 70 171 70t172 -70q71 -72 71 -172q0 -68 -23 -105q71 -39 126 -132q57 -95 57 -206q0 -166 -118 -284q-119 -118 -285 -118t-284 118t-118 284zM299 389q0 -82 59 -140q58 -59 140 -59q83 0 141 59 q58 58 58 140q0 83 -58 141q-58 59 -141 59q-82 0 -140 -59q-59 -58 -59 -141zM442 832q0 -24 17 -40q17 -17 40 -17q24 0 41 17q16 16 16 40q0 22 -16 39q-17 17 -41 17q-23 0 -40 -17t-17 -39z" />
<glyph unicode="9" horiz-adv-x="1010" d="M96 672q0 169 120 289t289 120t289 -120t120 -289q0 -85 -34 -163l-206 -509h-218l106 264q-5 -1 -57 -1q-169 0 -289 120t-120 289zM299 672q0 -86 61 -145q60 -61 145 -61q86 0 145 61q61 59 61 145q0 85 -61 145q-59 61 -145 61q-85 0 -145 -61q-61 -60 -61 -145z" />
<glyph unicode=":" horiz-adv-x="489" d="M147 151q0 53 37 91q38 37 90 37q53 0 91 -37q37 -38 37 -91q0 -52 -37 -90q-38 -37 -91 -37q-52 0 -90 37q-37 38 -37 90zM147 887q0 53 37 91q38 37 90 37q53 0 91 -37q37 -38 37 -91q0 -52 -37 -90q-38 -37 -91 -37q-52 0 -90 37q-37 38 -37 90z" />
<glyph unicode=";" horiz-adv-x="489" d="M170 886q0 53 37 91q37 36 89 36q53 0 90 -36q37 -38 37 -91q0 -52 -37 -88q-37 -38 -90 -38q-52 0 -89 38q-37 36 -37 88zM191 0h107q0 -43 -31 -74q-31 -32 -76 -32v-103q88 0 149 61q62 62 62 148v211h-211v-211z" />
<glyph unicode="&#x3c;" horiz-adv-x="1064" d="M87 660v111l890 513v-224l-600 -345l600 -340v-225z" />
<glyph unicode="=" horiz-adv-x="1064" d="M144 463v203h774v-203h-774zM144 775v203h774v-203h-774z" />
<glyph unicode="&#x3e;" horiz-adv-x="1064" d="M87 150v225l600 340l-600 345v224l890 -513v-111z" />
<glyph unicode="?" horiz-adv-x="1138" d="M80 965v26q0 204 143 349q144 144 345 144q202 0 345 -144q143 -145 143 -349q0 -181 -117 -319q-115 -137 -268 -163v-165h-206v361h106q115 2 197 85t82 201t-83 201q-82 84 -199 84t-199 -84q-83 -83 -83 -201v-26h-206zM440 112q0 53 37 92q39 38 92 38q54 0 91 -38 q38 -39 38 -92q0 -54 -38 -93q-37 -38 -91 -38q-53 0 -92 38q-37 39 -37 93z" />
<glyph unicode="@" horiz-adv-x="1886" d="M113 447q0 343 243 588q244 243 588 243q343 0 587 -243q243 -245 243 -588q0 -366 -289 -630l-143 144q230 205 230 486q0 260 -184 444q-184 185 -444 185q-261 0 -444 -185q-185 -184 -185 -444t185 -444q183 -185 469 -185v-202q-369 0 -613 244q-243 244 -243 587z M465 435q0 180 128 308q128 127 308 127q155 0 234 -64v66h202v-872h-202v63q-79 -64 -234 -64q-180 0 -308 128t-128 308zM667 435q0 -97 69 -165q68 -69 165 -69t165 69q69 68 69 165t-69 165q-68 68 -165 68t-165 -68q-69 -68 -69 -165z" />
<glyph unicode="A" horiz-adv-x="1330" d="M48 0l617 1527l617 -1527h-224l-107 265h-572l-107 -265h-224zM463 472h404l-202 500z" />
<glyph unicode="B" horiz-adv-x="1271" d="M144 0v1484h532q198 -1 322 -124q124 -124 124 -300q0 -172 -122 -296q-14 -13 -5 -6q7 -4 37 -33q125 -124 125 -302q0 -173 -122 -297q-124 -124 -273 -125v-1h-618zM352 209h384q89 0 151 64q62 62 62 149q0 92 -64 154q-62 63 -151 63h-382v-430zM352 847h349 q88 1 150 64q63 62 63 151q-1 89 -64 151q-62 63 -151 63h-347v-429z" />
<glyph unicode="C" horiz-adv-x="1656" d="M113 742q0 156 60 300q59 137 165 244q107 106 245 165q143 60 299 60q222 0 409 -118q182 -115 291 -330l-189 -82q-83 158 -215 240q-136 84 -296 84q-233 0 -398 -165t-165 -398t165 -398t398 -165q160 0 296 84q132 83 215 240l189 -82q-109 -215 -291 -330 q-187 -118 -409 -118q-156 0 -299 60q-138 59 -245 165q-106 107 -165 245q-60 143 -60 299z" />
<glyph unicode="D" horiz-adv-x="1506" d="M144 0v1484h506q151 0 289 -59q132 -56 236 -158q102 -104 158 -236q59 -138 59 -289q0 -150 -59 -289q-56 -132 -159 -235t-235 -159q-139 -59 -289 -59h-506zM343 183h308q220 1 376 157q157 156 157 377t-157 377q-156 157 -376 157h-308v-1068z" />
<glyph unicode="E" horiz-adv-x="1130" d="M144 0v1484h905v-208h-697v-426h562v-208h-562v-434h697v-208h-905z" />
<glyph unicode="F" horiz-adv-x="1129" d="M144 0v1484h905v-208h-697v-428h562v-208h-562v-640h-208z" />
<glyph unicode="G" horiz-adv-x="1762" d="M112 742q0 157 61 300q58 137 164 245q107 106 245 164q143 61 299 61q248 0 450 -145q196 -141 287 -402h-228q-75 158 -209 244q-136 89 -300 89q-230 0 -392 -163q-163 -163 -163 -393t163 -392q162 -163 392 -163q188 0 336 113q145 111 188 254h-547v214h793 q0 -182 -61 -325q-58 -138 -164 -245q-108 -106 -245 -164q-143 -61 -300 -61q-156 0 -299 61q-138 58 -245 164q-106 107 -164 245q-61 143 -61 299z" />
<glyph unicode="H" horiz-adv-x="1426" d="M144 0v1484h208v-637h722v637h208v-1484h-208v639h-722v-639h-208z" />
<glyph unicode="I" horiz-adv-x="496" d="M144 0v1484h208v-1484h-208z" />
<glyph unicode="J" horiz-adv-x="758" d="M80 0v208q150 0 238 89q88 87 88 212v830h-241v208h449v-1038q0 -210 -149 -360q-150 -149 -385 -149z" />
<glyph unicode="K" horiz-adv-x="1381" d="M144 0v1484h208v-684l684 684h294l-732 -732l751 -752h-293l-605 605l-99 -99v-506h-208z" />
<glyph unicode="L" horiz-adv-x="1170" d="M145 0v1484h208v-1276h737v-208h-945z" />
<glyph unicode="M" horiz-adv-x="1869" d="M112 0l379 1572l444 -1109l450 1106l378 -1569h-215l-214 890l-400 -985l-394 982l-213 -887h-215z" />
<glyph unicode="N" horiz-adv-x="1519" d="M144 0v1550l1029 -1095v1029h208v-1553l-1029 1094v-1025h-208z" />
<glyph unicode="O" horiz-adv-x="1762" d="M112 742q0 156 61 299q59 138 165 245q107 106 244 164q143 61 300 61q156 0 299 -61q137 -58 244 -164q107 -107 165 -245q61 -143 61 -299t-61 -300q-58 -137 -165 -244q-107 -106 -244 -165q-143 -60 -299 -60q-157 0 -300 60q-137 59 -244 165q-106 107 -165 244 q-61 144 -61 300zM318 742q0 -233 166 -398q164 -165 398 -165q233 0 397 165q166 165 166 398t-166 398q-164 165 -397 165q-234 0 -398 -165q-166 -165 -166 -398z" />
<glyph unicode="P" horiz-adv-x="1282" d="M144 0v1484h530q218 0 374 -155q155 -155 155 -374q0 -218 -155 -374q-156 -155 -374 -155h-322v-426h-208zM352 634h322q133 0 226 94q95 94 95 227t-95 227q-93 94 -226 94h-322v-642z" />
<glyph unicode="Q" horiz-adv-x="1762" d="M112 741q0 156 61 299q58 138 164 245q107 106 244 164q144 61 300 61t299 -61q137 -58 244 -164q106 -107 165 -245q60 -143 60 -299q0 -222 -119 -409q-115 -182 -282 -265l252 -360h-261l-198 283q-71 -17 -160 -17q-156 0 -300 60q-137 59 -244 165 q-106 107 -164 244q-61 143 -61 299zM326 741q0 -229 163 -391q162 -163 392 -163q229 0 391 163q163 162 163 391q0 230 -163 392q-162 163 -391 163q-230 0 -392 -163q-163 -162 -163 -392z" />
<glyph unicode="R" horiz-adv-x="1314" d="M144 0v1484h529q219 0 375 -155q155 -156 155 -374q0 -148 -78 -275q-74 -122 -164 -171q91 -60 164 -192q74 -136 74 -291v-26h-208v26q0 165 -117 282q-117 118 -283 118h-239v-426h-208zM352 634h321q134 0 227 94q94 94 94 227t-94 226q-93 95 -227 95h-321v-642z " />
<glyph unicode="S" horiz-adv-x="1311" d="M111 390l198 58q43 -148 158 -213q99 -56 227 -56q20 0 34 1t34 5q56 8 101 29q126 58 137 198v14q0 63 -42 112q-77 90 -253 101q-320 22 -467 152q-114 103 -114 263q0 213 169 342q149 115 362 115q252 0 421 -179q53 -57 93 -126q19 -37 42 -87l-193 -73 q-22 49 -39 78.5t-53 65.5q-110 115 -271 115q-49 0 -100 -12q-61 -14 -107 -41q-118 -67 -118 -198q0 -184 390 -209q260 -18 394 -173q93 -108 93 -244q0 -16 -1 -32q-17 -207 -177 -322q-140 -101 -334 -101h-2q-184 0 -334 87q-182 106 -248 330z" />
<glyph unicode="T" horiz-adv-x="1330" d="M48 1276v208h1230v-208h-508v-1276h-208v1276h-514z" />
<glyph unicode="U" horiz-adv-x="1515" d="M144 586v897h206v-897q0 -168 120 -287q118 -119 287 -119q168 0 286 119q120 119 120 287v897h207v-897q0 -253 -180 -434q-180 -179 -433 -179q-254 0 -434 179q-179 181 -179 434z" />
<glyph unicode="V" horiz-adv-x="1354" d="M48 1484h224l405 -1003l406 1003h224l-630 -1558z" />
<glyph unicode="W" horiz-adv-x="1994" d="M48 1484h224l406 -1003l206 511l-198 492h224l87 -214l86 214h225l-199 -492l206 -511l406 1003h224l-630 -1558l-319 788l-319 -788z" />
<glyph unicode="X" horiz-adv-x="1415" d="M48 0l532 759l-507 725h254l381 -543l381 543h254l-508 -725l531 -759h-254l-405 577l-405 -577h-254z" />
<glyph unicode="Y" horiz-adv-x="1338" d="M64 1484h223l384 -951l385 951h223l-760 -1875h-224l264 649z" />
<glyph unicode="Z" horiz-adv-x="1336" d="M24 0l893 1276h-796v208h1195l-893 -1276h795v-208h-1194z" />
<glyph unicode="[" horiz-adv-x="614" d="M144 -409v1868h359v-206h-153v-1456h153v-206h-359z" />
<glyph unicode="]" horiz-adv-x="582" d="M112 -203h153v1456h-153v206h359v-1868h-359v206z" />
<glyph unicode="^" horiz-adv-x="902" d="M111 1201l340 352l344 -345l-143 -143l-199 198l-196 -202z" />
<glyph unicode="_" horiz-adv-x="1026" d="M-48 -23h1122v-162h-1122v162z" />
<glyph unicode="`" horiz-adv-x="1094" d="M256 1465l167 116l273 -389l-167 -117z" />
<glyph unicode="a" horiz-adv-x="1341" d="M96 536q0 228 161 390q162 161 389 161q229 0 348 -119v106h203v-1074h-203v105q-119 -119 -348 -119q-227 0 -389 161q-161 162 -161 389zM299 536q0 -144 102 -245q101 -102 245 -102t246 102q102 101 102 245t-102 245q-102 103 -246 103t-245 -103 q-102 -101 -102 -245z" />
<glyph unicode="b" horiz-adv-x="1341" d="M144 0v1538h203v-569q119 119 348 119q227 0 389 -161q161 -162 161 -390q0 -227 -161 -389q-162 -162 -389 -162q-229 0 -348 120v-106h-203zM345 535q0 -144 102 -246t246 -102q145 0 246 102q103 102 103 246q0 145 -103 246q-101 103 -246 103q-144 0 -246 -103 q-102 -101 -102 -246z" />
<glyph unicode="c" horiz-adv-x="1247" d="M96 537q0 227 161 389q163 161 390 161q159 0 293 -85q130 -83 211 -243l-186 -81q-55 104 -136 155q-84 51 -182 51q-144 0 -245 -102q-103 -101 -103 -245t103 -246q101 -102 245 -102q98 0 182 52q81 50 136 155l186 -81q-81 -161 -211 -244q-134 -85 -293 -85 q-227 0 -390 161q-161 162 -161 390z" />
<glyph unicode="d" horiz-adv-x="1308" d="M96 536q0 227 161 389q162 162 390 162t347 -120v622h203v-1589h-203v105q-119 -120 -347 -120t-390 162q-161 162 -161 389zM299 536q0 -144 102 -245q102 -102 246 -102t245 102q102 101 102 245t-102 245q-101 102 -245 102t-246 -102q-102 -101 -102 -245z" />
<glyph unicode="e" d="M96 537q0 227 162 389q162 161 389 161t389 -161q161 -162 161 -389l-2 -57h-892q20 -118 109 -199q99 -92 235 -92q98 0 182 52q81 50 136 155l186 -81q-81 -161 -211 -244q-134 -85 -293 -85q-227 0 -389 161q-162 162 -162 390zM330 683h633q-36 76 -113 135 q-91 66 -203 66q-113 0 -203 -66q-67 -45 -114 -135z" />
<glyph unicode="f" horiz-adv-x="658" d="M80 873v203h129v151q5 153 114 260q111 108 290 108v-203q-95 0 -147 -49q-51 -48 -54 -117v-150h201v-203h-201v-873h-203v873h-129z" />
<glyph unicode="g" horiz-adv-x="1305" d="M95 -392l307 442q-113 55 -197 184q-86 135 -86 295q0 225 159 385q161 160 386 160h545v-204h-115q115 -144 115 -326v-15q0 -226 -159 -386q-161 -160 -386 -160q-33 0 -58 4l-122 -175h499v-204h-888zM322 529q0 -142 101 -242q99 -100 241 -100t241 100 q101 100 101 242q0 141 -101 241q-99 100 -241 100t-241 -100q-101 -100 -101 -241z" />
<glyph unicode="h" horiz-adv-x="1181" d="M144 0v1538h203v-522q107 71 239 71h4q184 0 316 -130q130 -132 130 -316v-641h-203v641q0 101 -71 171q-71 72 -172 72t-172 -72q-71 -70 -71 -171v-641h-203z" />
<glyph unicode="i" horiz-adv-x="490" d="M118 1319q0 53 37 91q38 37 90 37q53 0 91 -37q37 -38 37 -91q0 -52 -37 -90q-38 -37 -91 -37q-52 0 -90 37q-37 38 -37 90zM144 0v1074h203v-1074h-203z" />
<glyph unicode="j" horiz-adv-x="490" d="M8 -191q71 0 103 32q33 32 33 78v1155h203v-1157q-1 -129 -92 -221q-93 -91 -247 -91v204zM118 1318q0 53 37 91q38 37 90 37q53 0 91 -37q37 -38 37 -91q0 -52 -37 -90q-38 -37 -91 -37q-52 0 -90 37q-37 38 -37 90z" />
<glyph unicode="k" horiz-adv-x="1110" d="M144 0v1538h203v-918l458 456h289l-452 -450l438 -626h-249l-336 479l-148 -147v-332h-203z" />
<glyph unicode="l" horiz-adv-x="482" d="M144 0v1538h204v-1538h-204z" />
<glyph unicode="m" horiz-adv-x="1870" d="M144 0v1074h203v-58q103 70 243 71q111 0 209 -52q74 -38 136 -110q81 85 135 110q99 52 210 52q184 0 316 -131q130 -131 130 -316v-640h-203v640q0 101 -72 172q-70 72 -171 72t-172 -72q-71 -70 -72 -171v-641h-203v640q0 101 -71 172q-71 72 -172 72t-172 -72 q-71 -71 -71 -172v-640h-203z" />
<glyph unicode="n" horiz-adv-x="1181" d="M144 0v1074h203v-58q107 71 239 71h4q184 0 316 -130q130 -132 130 -316v-641h-203v641q0 101 -71 171q-71 72 -172 72t-172 -72q-71 -70 -71 -171v-641h-203z" />
<glyph unicode="o" horiz-adv-x="1294" d="M96 537q0 227 161 389q162 161 390 161q227 0 389 -161q161 -162 161 -389q0 -228 -161 -390q-162 -161 -389 -161q-228 0 -390 161q-161 162 -161 390zM299 537q0 -144 103 -246q101 -102 245 -102t245 102q102 102 102 246t-102 245q-101 102 -245 102t-245 -102 q-103 -101 -103 -245z" />
<glyph unicode="p" horiz-adv-x="1340" d="M144 -392v1466h203v-106q119 119 347 119t390 -161q161 -162 161 -390q0 -227 -161 -389q-162 -161 -390 -161t-347 119v-497h-203zM347 536q0 -144 102 -245q101 -102 245 -102t246 102q102 101 102 245t-102 246t-246 102t-245 -102q-102 -102 -102 -246z" />
<glyph unicode="q" horiz-adv-x="1344" d="M96 536q0 228 161 390q163 161 390 161q228 0 348 -120v107h203v-1466h-203v498q-120 -120 -348 -120q-227 0 -390 161q-161 162 -161 389zM299 536q0 -144 103 -245q101 -102 245 -102t246 102q102 101 102 245t-102 246t-246 102t-245 -102q-103 -102 -103 -246z" />
<glyph unicode="r" horiz-adv-x="674" d="M144 0v1074h203v-56q83 69 243 69h44v-203h-44q-101 0 -171 -72q-72 -71 -72 -172v-640h-203z" />
<glyph unicode="s" horiz-adv-x="985" d="M112 299l195 56q28 -95 95 -133q59 -32 136 -33q9 0 20.5 1t24.5 3q31 5 56 17q66 31 73 107v5q0 31 -21 56q-43 51 -148 57q-239 16 -345 122q-43 43 -62 99q-14 43 -14 91q0 158 124 255q109 85 265 85q184 0 307 -131q59 -60 101 -162l-189 -71l-24 46q-15 26 -35 48 q-66 67 -162 67q-19 -1 -32 -3q-33 -4 -63 -16q-89 -35 -89 -118q0 -49 69 -78q60 -24 163 -31q105 -7 184 -48q62 -31 104 -80q70 -81 70 -183q0 -13 -1 -26q-12 -153 -130 -239q-103 -76 -246 -76h-1q-134 1 -243 64q-132 78 -182 249z" />
<glyph unicode="t" horiz-adv-x="575" d="M144 359v899h203v-182h180v-203h-180v-514q0 -65 45 -110q45 -46 135 -46v-203q-173 0 -279 105q-104 106 -104 254z" />
<glyph unicode="u" horiz-adv-x="1182" d="M144 433v641h203v-641q0 -101 72 -172q71 -72 172 -72t172 72q72 71 72 172v641h203v-1074h-203v57q-103 -69 -244 -71q-184 0 -316 131q-131 132 -131 316z" />
<glyph unicode="v" horiz-adv-x="1018" d="M48 1074h213l245 -607l246 607h213l-459 -1135z" />
<glyph unicode="w" horiz-adv-x="1450" d="M48 1074h204l255 -632l117 289l-139 343h204l37 -91l36 91h204l-138 -343l116 -289l256 632h203l-459 -1136l-218 541l-219 -541z" />
<glyph unicode="x" horiz-adv-x="1056" d="M16 0l386 550l-367 524h248l243 -346l244 346h248l-367 -524l385 -550h-248l-262 373l-262 -373h-248z" />
<glyph unicode="y" horiz-adv-x="1098" d="M48 1074h220l283 -699l283 699h220l-511 -1263h261v-204h-564l201 495z" />
<glyph unicode="z" horiz-adv-x="1104" d="M48 0l613 873h-556v201h945l-612 -871h556v-203h-946z" />
<glyph unicode="{" horiz-adv-x="834" d="M109 390v240q89 4 131.5 35t65 97t22.5 223q0 198 18 270.5t57.5 116t116 71.5t220.5 28h53v-240q-107 0 -140 -11.5t-48.5 -37.5t-15.5 -96q0 -126 -12 -281q-8 -101 -55 -181q-35 -59 -121 -115q73 -42 116 -106.5t57 -163.5q6 -43 14 -280q3 -87 11 -108 q13 -31 48.5 -47t145.5 -16v-239h-53q-145 0 -215 23.5t-114 69t-63.5 115t-19.5 239.5q0 190 -20.5 256.5t-64 99.5t-134.5 38z" />
<glyph unicode="|" horiz-adv-x="1064" d="M427 -443v2045h204v-2045h-204z" />
<glyph unicode="}" horiz-adv-x="834" d="M73 -212q107 0 139.5 11.5t48.5 37.5t16 96q0 127 12 282q7 101 54 180q36 60 122 115q-73 42 -116 106.5t-57 164.5q-6 42 -14 279q-3 88 -12 108q-13 32 -48.5 47.5t-144.5 15.5v240h53q145 0 214.5 -24t114 -69.5t64 -115t19.5 -239.5q0 -190 20.5 -256t63.5 -99 t135 -38v-240q-89 -5 -131.5 -35.5t-65.5 -97t-23 -223.5q0 -198 -17.5 -270t-57 -115.5t-116 -71.5t-220.5 -28h-53v239z" />
<glyph unicode="~" horiz-adv-x="1064" d="M94 489v232q74 85 138 113t124 28q69 0 192 -51q112 -48 162 -48q46 0 98 25q51 26 165 157v-232q-73 -84 -137 -111q-64 -28 -126 -28q-65 0 -187 51q-113 46 -167 46q-45 0 -96 -25q-52 -26 -166 -157z" />
<glyph unicode="&#xa5;" horiz-adv-x="1452" d="M80 657v207h277l-43 107h-234v207h151l-114 281h224l113 -281h546l113 281h224l-114 -281h149v-207h-232l-44 -107h276v-207h-359l-1 -1l-311 -767v2l-125 -307h-223l261 644l-173 429h-361zM538 971l43 -107h291l44 107h-378zM665 657l61 -153l63 153h-124z" />
<glyph unicode="&#xa6;" horiz-adv-x="1064" d="M427 396h204v-839h-204v839zM427 764v839h204v-839h-204z" />
<glyph unicode="&#xa8;" horiz-adv-x="1074" d="M167 1296q0 53 37 91q38 37 90 37q53 0 91 -37q37 -38 37 -91q0 -52 -37 -90q-38 -37 -91 -37q-52 0 -90 37q-37 38 -37 90zM659 1296q0 53 37 91q38 37 90 37q53 0 91 -37q37 -38 37 -91q0 -52 -37 -90q-38 -37 -91 -37q-52 0 -90 37q-37 38 -37 90z" />
<glyph unicode="&#xa9;" horiz-adv-x="1010" d="M112 1068q0 161 114 276q115 113 275 113q161 0 276 -113q114 -115 114 -276t-114 -275q-115 -114 -276 -114q-160 0 -275 114q-114 114 -114 275zM266 1068q0 -98 69 -166q69 -69 166 -69q98 0 166 69q70 68 70 166t-70 166q-68 70 -166 70q-97 0 -166 -70 q-69 -68 -69 -166zM333 1067q0 72 51 123q51 50 123 50q107 0 164 -115l-106 -45q-25 45 -58 45q-24 0 -41 -17t-17 -41t17 -41q17 -16 41 -16q33 0 58 45l106 -46q-57 -115 -164 -115q-72 0 -123 51q-51 50 -51 122z" />
<glyph unicode="&#xaa;" horiz-adv-x="698" d="M113 743v147h557v-147h-557zM113 1184q0 115 82 197t197 82q116 0 198 -82t82 -197q0 -116 -82 -198t-198 -82q-115 0 -197 82t-82 198zM258 1183q0 -56 40 -95q39 -40 95 -40q57 0 96 40q40 39 40 95t-40 95q-39 40 -96 40q-56 0 -95 -40q-40 -39 -40 -95zM529 909v557 h143v-557h-143z" />
<glyph unicode="&#xac;" horiz-adv-x="1106" d="M80 583v210h946v-355h-226v145h-720z" />
<glyph unicode="&#xae;" horiz-adv-x="1002" d="M112 1068q0 161 114 276q115 114 275 114q161 0 276 -114q114 -115 114 -276q0 -160 -114 -275q-115 -114 -276 -114q-160 0 -275 114q-114 115 -114 275zM266 1068q0 -97 69 -166t166 -69q98 0 166 69q70 69 70 166q0 98 -70 166q-68 70 -166 70q-97 0 -166 -70 q-69 -68 -69 -166zM391 918v301h127q42 0 71 -30q29 -29 29 -70q0 -38 -16 -56q13 -15 13 -50v-95h-92v95q0 6 -5 6h-35v-101h-92zM473 1108h51q11 0 11 14q0 12 -11 12h-51v-26z" />
<glyph unicode="&#xb0;" horiz-adv-x="658" d="M48 1184q0 115 82 197t197 82q116 0 198 -82t82 -197q0 -116 -82 -198t-198 -82q-115 0 -197 82t-82 198zM193 1183q0 -56 40 -95q39 -40 95 -40q57 0 96 40q40 39 40 95t-40 95q-39 40 -96 40q-56 0 -95 -40q-40 -39 -40 -95z" />
<glyph unicode="&#xb4;" horiz-adv-x="998" d="M302 1192l273 390l167 -117l-273 -389z" />
<glyph unicode="&#xb6;" horiz-adv-x="1074" d="M93 1086q0 168 116 272q114 102 302 102h468v-120h-127v-1365h-132v1365h-116v-1365h-134v739q-159 7 -267 109q-110 101 -110 263z" />
<glyph unicode="&#xb7;" horiz-adv-x="558" d="M155 702q0 53 37 91q38 37 90 37q53 0 91 -37q37 -38 37 -91q0 -52 -37 -90q-38 -37 -91 -37q-52 0 -90 37q-37 38 -37 90z" />
<glyph unicode="&#xbf;" horiz-adv-x="1138" d="M80 474q0 181 117 319q115 137 268 163v165h206v-361h-106q-115 -2 -197 -85t-82 -201t83 -201q82 -84 199 -84t199 84q83 83 83 201v26h206v-26q0 -204 -143 -349q-144 -144 -345 -144q-202 0 -345 144q-143 145 -143 349zM438 1353q0 54 38 93q37 38 91 38q53 0 92 -38 q37 -39 37 -93q0 -53 -37 -92q-39 -38 -92 -38q-54 0 -91 38q-38 39 -38 92z" />
<glyph unicode="&#xc0;" horiz-adv-x="1330" d="M48 0l617 1527l617 -1527h-224l-107 265h-572l-107 -265h-224zM429 1671l34 132l311 -80l-33 -131zM463 472h404l-202 500z" />
<glyph unicode="&#xc1;" horiz-adv-x="1330" d="M48 0l617 1527l617 -1527h-224l-107 265h-572l-107 -265h-224zM463 472h404l-202 500zM562 1723l313 80l33 -132l-311 -79z" />
<glyph unicode="&#xc2;" horiz-adv-x="1330" d="M48 0l617 1527l617 -1527h-224l-107 265h-572l-107 -265h-224zM452 1594l211 219l220 -219l-90 -90l-130 125l-119 -125zM463 472h404l-202 500z" />
<glyph unicode="&#xc3;" horiz-adv-x="1330" d="M48 0l617 1527l617 -1527h-224l-107 265h-572l-107 -265h-224zM279 1631v172h771v-172h-771zM463 472h404l-202 500z" />
<glyph unicode="&#xc4;" horiz-adv-x="1330" d="M48 0l617 1527l617 -1527h-224l-107 265h-572l-107 -265h-224zM366 1674q0 46 33 78q32 32 78 32t78 -32t32 -78q0 -47 -32 -79t-78 -32t-78 32q-33 32 -33 79zM463 472h404l-202 500zM742 1674q0 46 33 78q32 32 78 32t78 -32t32 -78q0 -47 -32 -79t-78 -32t-78 32 q-33 32 -33 79z" />
<glyph unicode="&#xc6;" horiz-adv-x="1627" d="M48 0l599 1484h899v-208h-697v-427h562v-207h-562v-434h697v-207h-905v266h-261l-108 -267h-224zM463 474h178v440z" />
<glyph unicode="&#xc7;" horiz-adv-x="1656" d="M113 742q0 156 60 300q59 137 165 244q107 106 245 165q143 60 299 60q222 0 409 -118q182 -115 291 -330l-189 -82q-83 158 -215 240q-136 84 -296 84q-233 0 -398 -165t-165 -398t165 -398t398 -165q160 0 296 84q132 83 215 240l189 -82q-109 -215 -291 -330 q-187 -118 -409 -118q-156 0 -299 60q-138 59 -245 165q-106 107 -165 245q-60 143 -60 299zM545 -116h663v-203h-663v203z" />
<glyph unicode="&#xc8;" horiz-adv-x="1130" d="M144 0v1484h905v-208h-697v-426h562v-208h-562v-434h697v-208h-905zM380 1671l34 132l311 -80l-33 -131z" />
<glyph unicode="&#xc9;" horiz-adv-x="1130" d="M144 0v1484h905v-208h-697v-426h562v-208h-562v-434h697v-208h-905zM550 1723l313 80l33 -132l-311 -79z" />
<glyph unicode="&#xca;" horiz-adv-x="1130" d="M144 0v1484h905v-208h-697v-426h562v-208h-562v-434h697v-208h-905zM386 1594l211 219l220 -219l-90 -90l-130 125l-119 -125z" />
<glyph unicode="&#xcb;" horiz-adv-x="1130" d="M144 0v1484h905v-208h-697v-426h562v-208h-562v-434h697v-208h-905zM298 1674q0 46 33 78q32 32 78 32t78 -32t32 -78q0 -47 -32 -79t-78 -32t-78 32q-33 32 -33 79zM674 1674q0 46 33 78q32 32 78 32t78 -32t32 -78q0 -47 -32 -79t-78 -32t-78 32q-33 32 -33 79z" />
<glyph unicode="&#xcc;" horiz-adv-x="476" d="M49 1671l34 132l311 -80l-33 -131zM144 0v1484h208v-1484h-208z" />
<glyph unicode="&#xcd;" horiz-adv-x="476" d="M82 1723l313 80l33 -132l-311 -79zM144 0v1484h208v-1484h-208z" />
<glyph unicode="&#xce;" horiz-adv-x="518" d="M97 1625l194 201l202 -201l-83 -83l-119 115l-109 -115zM186 0v1484h208v-1484h-208z" />
<glyph unicode="&#xcf;" horiz-adv-x="498" d="M-53 1674q0 46 33 78q32 32 78 32t78 -32t32 -78q0 -47 -32 -79t-78 -32t-78 32q-33 32 -33 79zM142 0v1484h208v-1484h-208zM323 1674q0 46 33 78q32 32 78 32t78 -32t32 -78q0 -47 -32 -79t-78 -32t-78 32q-33 32 -33 79z" />
<glyph unicode="&#xd1;" horiz-adv-x="1586" d="M144 0v1550l1029 -1095v1029h208v-1553l-1029 1094v-1025h-208zM336 1631v172h771v-172h-771z" />
<glyph unicode="&#xd2;" horiz-adv-x="1762" d="M112 742q0 156 61 299q59 138 165 245q107 106 244 164q143 61 300 61q156 0 299 -61q137 -58 244 -164q107 -107 165 -245q61 -143 61 -299t-61 -300q-58 -137 -165 -244q-107 -106 -244 -165q-143 -60 -299 -60q-157 0 -300 60q-137 59 -244 165q-106 107 -165 244 q-61 144 -61 300zM318 742q0 -233 166 -398q164 -165 398 -165q233 0 397 165q166 165 166 398t-166 398q-164 165 -397 165q-234 0 -398 -165q-166 -165 -166 -398zM641 1671l34 132l311 -80l-33 -131z" />
<glyph unicode="&#xd3;" horiz-adv-x="1714" d="M112 742q0 156 61 299q59 138 165 245q107 106 244 164q143 61 300 61q156 0 299 -61q137 -58 244 -164q107 -107 165 -245q61 -143 61 -299t-61 -300q-58 -137 -165 -244q-107 -106 -244 -165q-143 -60 -299 -60q-157 0 -300 60q-137 59 -244 165q-106 107 -165 244 q-61 144 -61 300zM318 742q0 -233 166 -398q164 -165 398 -165q233 0 397 165q166 165 166 398t-166 398q-164 165 -397 165q-234 0 -398 -165q-166 -165 -166 -398zM763 1723l313 80l33 -132l-311 -79z" />
<glyph unicode="&#xd4;" horiz-adv-x="1762" d="M112 742q0 156 61 299q59 138 165 245q107 106 244 164q143 61 300 61q156 0 299 -61q137 -58 244 -164q107 -107 165 -245q61 -143 61 -299t-61 -300q-58 -137 -165 -244q-107 -106 -244 -165q-143 -60 -299 -60q-157 0 -300 60q-137 59 -244 165q-106 107 -165 244 q-61 144 -61 300zM318 742q0 -233 166 -398q164 -165 398 -165q233 0 397 165q166 165 166 398t-166 398q-164 165 -397 165q-234 0 -398 -165q-166 -165 -166 -398zM687 1625l194 201l202 -201l-83 -83l-119 115l-109 -115z" />
<glyph unicode="&#xd5;" horiz-adv-x="1762" d="M112 742q0 156 61 299q59 138 165 245q107 106 244 164q143 61 300 61q156 0 299 -61q137 -58 244 -164q107 -107 165 -245q61 -143 61 -299t-61 -300q-58 -137 -165 -244q-107 -106 -244 -165q-143 -60 -299 -60q-157 0 -300 60q-137 59 -244 165q-106 107 -165 244 q-61 144 -61 300zM318 742q0 -233 166 -398q164 -165 398 -165q233 0 397 165q166 165 166 398t-166 398q-164 165 -397 165q-234 0 -398 -165q-166 -165 -166 -398zM495 1631v172h771v-172h-771z" />
<glyph unicode="&#xd6;" horiz-adv-x="1762" d="M112 742q0 156 61 299q59 138 165 245q107 106 244 164q143 61 300 61q156 0 299 -61q137 -58 244 -164q107 -107 165 -245q61 -143 61 -299t-61 -300q-58 -137 -165 -244q-107 -106 -244 -165q-143 -60 -299 -60q-157 0 -300 60q-137 59 -244 165q-106 107 -165 244 q-61 144 -61 300zM318 742q0 -233 166 -398q164 -165 398 -165q233 0 397 165q166 165 166 398t-166 398q-164 165 -397 165q-234 0 -398 -165q-166 -165 -166 -398zM557 1683q0 50 35 85t85 35t85 -35t35 -85t-35 -85t-85 -35t-85 35t-35 85zM965 1683q0 50 36 85 q35 35 84 35q50 0 85 -35t35 -85t-35 -85t-85 -35q-49 0 -84 35q-36 35 -36 85z" />
<glyph unicode="&#xd7;" horiz-adv-x="1084" d="M161 470l247 247l-247 248l134 133l247 -247l248 247l133 -134l-247 -247l247 -247l-134 -134l-247 247l-247 -247z" />
<glyph unicode="&#xd8;" horiz-adv-x="1698" d="M112 716q0 304 216 521q217 216 521 216q189 0 335 -80l150 213l170 -119l-151 -214q233 -206 233 -537q0 -305 -215 -521q-217 -216 -522 -216q-187 0 -332 78l-153 -217l-169 119l152 217q-235 207 -235 540zM319 716q0 -229 148 -368l597 853q-88 45 -215 45 q-219 0 -374 -156q-156 -154 -156 -374zM637 229q87 -43 212 -43q220 0 375 155t155 375q0 227 -146 365z" />
<glyph unicode="&#xd9;" horiz-adv-x="1515" d="M144 563v897h206v-897q0 -168 120 -287q118 -119 287 -119q168 0 286 119q120 119 120 287v897h207v-897q0 -253 -180 -434q-180 -179 -433 -179q-254 0 -434 179q-179 181 -179 434zM550 1727l167 116l194 -275l-167 -117z" />
<glyph unicode="&#xda;" horiz-adv-x="1515" d="M144 563v897h206v-897q0 -168 120 -287q118 -119 287 -119q168 0 286 119q120 119 120 287v897h207v-897q0 -253 -180 -434q-180 -179 -433 -179q-254 0 -434 179q-179 181 -179 434zM614 1566l193 277l167 -117l-193 -276z" />
<glyph unicode="&#xdb;" horiz-adv-x="1515" d="M144 563v897h206v-897q0 -168 120 -287q118 -119 287 -119q168 0 286 119q120 119 120 287v897h207v-897q0 -253 -180 -434q-180 -179 -433 -179q-254 0 -434 179q-179 181 -179 434zM487 1566l268 278l277 -277l-120 -119l-155 154l-148 -153z" />
<glyph unicode="&#xdc;" horiz-adv-x="1515" d="M144 563v897h206v-897q0 -168 120 -287q118 -119 287 -119q168 0 286 119q120 119 120 287v897h207v-897q0 -253 -180 -434q-180 -179 -433 -179q-254 0 -434 179q-179 181 -179 434zM384 1622q0 53 37 91q38 37 90 37q53 0 91 -37q37 -38 37 -91q0 -52 -37 -90 q-38 -37 -91 -37q-52 0 -90 37q-37 38 -37 90zM876 1622q0 53 37 91q38 37 90 37q53 0 91 -37q37 -38 37 -91q0 -52 -37 -90q-38 -37 -91 -37q-52 0 -90 37q-37 38 -37 90z" />
<glyph unicode="&#xdd;" horiz-adv-x="1346" d="M64 1459h223l384 -951l385 951h223l-760 -1875h-224l264 649zM564 1566l193 277l167 -117l-193 -276z" />
<glyph unicode="&#xe0;" horiz-adv-x="1341" d="M96 536q0 228 161 390q162 161 389 161q229 0 348 -119v106h203v-1074h-203v105q-119 -119 -348 -119q-227 0 -389 161q-161 162 -161 389zM299 536q0 -144 102 -245q101 -102 245 -102t246 102q102 101 102 245t-102 245q-102 103 -246 103t-245 -103 q-102 -101 -102 -245zM362 1510l167 116l273 -389l-167 -117z" />
<glyph unicode="&#xe1;" horiz-adv-x="1314" d="M96 536q0 228 161 390q162 161 389 161q229 0 348 -119v106h203v-1074h-203v105q-119 -119 -348 -119q-227 0 -389 161q-161 162 -161 389zM299 536q0 -144 102 -245q101 -102 245 -102t246 102q102 101 102 245t-102 245q-102 103 -246 103t-245 -103 q-102 -101 -102 -245zM572 1236l273 390l167 -117l-273 -389z" />
<glyph unicode="&#xe2;" horiz-adv-x="1341" d="M96 536q0 228 161 390q162 161 389 161q229 0 348 -119v106h203v-1074h-203v105q-119 -119 -348 -119q-227 0 -389 161q-161 162 -161 389zM299 536q0 -144 102 -245q101 -102 245 -102t246 102q102 101 102 245t-102 245q-102 103 -246 103t-245 -103 q-102 -101 -102 -245zM309 1244l336 348l344 -345l-143 -143l-199 198l-192 -198z" />
<glyph unicode="&#xe3;" horiz-adv-x="1341" d="M96 536q0 228 161 390q162 161 389 161q229 0 348 -119v106h203v-1074h-203v105q-119 -119 -348 -119q-227 0 -389 161q-161 162 -161 389zM225 1260v203h844v-203h-844zM299 536q0 -144 102 -245q101 -102 245 -102t246 102q102 101 102 245t-102 245q-102 103 -246 103 t-245 -103q-102 -101 -102 -245z" />
<glyph unicode="&#xe4;" horiz-adv-x="1341" d="M96 536q0 228 161 390q162 161 389 161q229 0 348 -119v106h203v-1074h-203v105q-119 -119 -348 -119q-227 0 -389 161q-161 162 -161 389zM273 1296q0 53 37 91q38 37 90 37q53 0 91 -37q37 -38 37 -91q0 -52 -37 -90q-38 -37 -91 -37q-52 0 -90 37q-37 38 -37 90z M299 536q0 -144 102 -245q101 -102 245 -102t246 102q102 101 102 245t-102 245q-102 103 -246 103t-245 -103q-102 -101 -102 -245zM765 1296q0 53 37 91q38 37 90 37q53 0 91 -37q37 -38 37 -91q0 -52 -37 -90q-38 -37 -91 -37q-52 0 -90 37q-37 38 -37 90z" />
<glyph unicode="&#xe6;" horiz-adv-x="2134" d="M96 540q0 224 158 383q160 158 383 158q220 0 336 -113v113h205v-113q115 113 336 113q223 0 382 -158q158 -159 158 -382v-18l-3 -40h-870q10 -102 106 -190t227 -88q95 0 176 49q78 49 132 151l187 -80q-80 -160 -208 -241q-131 -84 -287 -84q-221 0 -336 114v-114 h-205v113q-116 -113 -336 -113q-223 0 -383 158q-158 159 -158 382zM301 540q0 -139 99 -237q97 -99 237 -99q139 0 237 99q99 98 99 237q0 140 -99 238q-98 98 -237 98q-140 0 -237 -98q-99 -98 -99 -238zM1210 687h607q-23 65 -109 127q-86 63 -194 63t-195 -63 q-86 -62 -109 -127z" />
<glyph unicode="&#xe7;" horiz-adv-x="1250" d="M96 537q0 227 161 389q163 161 390 161q159 0 293 -85q130 -83 211 -243l-186 -81q-55 104 -136 155q-84 51 -182 51q-144 0 -245 -102q-103 -101 -103 -245t103 -246q101 -102 245 -102q98 0 182 52q81 50 136 155l186 -81q-81 -161 -211 -244q-134 -85 -293 -85 q-227 0 -390 161q-161 162 -161 390zM325 -88h663v-203h-663v203z" />
<glyph unicode="&#xe8;" horiz-adv-x="1294" d="M96 537q0 227 162 389q162 161 389 161t389 -161q161 -162 161 -389l-2 -57h-892q20 -118 109 -199q99 -92 235 -92q98 0 182 52q81 50 136 155l186 -81q-81 -161 -211 -244q-134 -85 -293 -85q-227 0 -389 161q-162 162 -162 390zM313 1510l167 117l273 -390l-167 -117z M330 683h633q-36 76 -113 135q-91 66 -203 66q-113 0 -203 -66q-67 -45 -114 -135z" />
<glyph unicode="&#xe9;" horiz-adv-x="1294" d="M96 537q0 227 162 389q162 161 389 161t389 -161q161 -162 161 -389l-2 -57h-892q20 -118 109 -199q99 -92 235 -92q98 0 182 52q81 50 136 155l186 -81q-81 -161 -211 -244q-134 -85 -293 -85q-227 0 -389 161q-162 162 -162 390zM330 683h633q-36 76 -113 135 q-91 66 -203 66q-113 0 -203 -66q-67 -45 -114 -135zM580 1237l273 390l167 -117l-273 -390z" />
<glyph unicode="&#xea;" d="M96 537q0 227 162 389q162 161 389 161t389 -161q161 -162 161 -389l-2 -57h-892q20 -118 109 -199q99 -92 235 -92q98 0 182 52q81 50 136 155l186 -81q-81 -161 -211 -244q-134 -85 -293 -85q-227 0 -389 161q-162 162 -162 390zM309 1244l336 349l345 -347l-143 -144 l-200 200l-192 -198zM330 683h633q-36 76 -113 135q-91 66 -203 66q-113 0 -203 -66q-67 -45 -114 -135z" />
<glyph unicode="&#xeb;" d="M96 537q0 227 162 389q162 161 389 161t389 -161q161 -162 161 -389l-2 -57h-892q20 -118 109 -199q99 -92 235 -92q98 0 182 52q81 50 136 155l186 -81q-81 -161 -211 -244q-134 -85 -293 -85q-227 0 -389 161q-162 162 -162 390zM272 1296q0 53 37 91q38 37 90 37 q53 0 91 -37q37 -38 37 -91q0 -52 -37 -90q-38 -37 -91 -37q-52 0 -90 37q-37 38 -37 90zM330 683h633q-36 76 -113 135q-91 66 -203 66q-113 0 -203 -66q-67 -45 -114 -135zM764 1296q0 53 37 91q38 37 90 37q53 0 91 -37q37 -38 37 -91q0 -52 -37 -90q-38 -37 -91 -37 q-52 0 -90 37q-37 38 -37 90z" />
<glyph unicode="&#xec;" horiz-adv-x="510" d="M-41 1511l167 117l274 -390l-167 -118zM154 0v1074h203v-1074h-203z" />
<glyph unicode="&#xed;" horiz-adv-x="511" d="M81 1237l273 390l167 -117l-273 -390zM154 0v1074h203v-1074h-203z" />
<glyph unicode="&#xee;" horiz-adv-x="511" d="M-46 1278l302 312l302 -305l-128 -131l-174 174l-171 -176zM154 0v1074h203v-1074h-203z" />
<glyph unicode="&#xef;" horiz-adv-x="522" d="M-33 1296q0 53 37 91q38 37 90 37q53 0 91 -37q37 -38 37 -91q0 -52 -37 -90q-38 -37 -91 -37q-52 0 -90 37q-37 38 -37 90zM160 0v1074h203v-1074h-203zM301 1296q0 53 37 91q38 37 90 37q53 0 91 -37q37 -38 37 -91q0 -52 -37 -90q-38 -37 -91 -37q-52 0 -90 37 q-37 38 -37 90z" />
<glyph unicode="&#xf1;" horiz-adv-x="1181" d="M129 0v1104h233v-45q108 60 229 58q190 0 325 -136q136 -135 136 -326v-655h-233v655q0 95 -67 162t-161 67q-95 0 -162 -67t-67 -162v-655h-233zM189 1259v203h802v-203h-802z" />
<glyph unicode="&#xf2;" d="M96 537q0 227 161 389q162 161 390 161q227 0 389 -161q161 -162 161 -389q0 -228 -161 -390q-162 -161 -389 -161q-228 0 -390 161q-161 162 -161 390zM299 537q0 -144 103 -246q101 -102 245 -102t245 102q102 102 102 246t-102 245q-101 102 -245 102t-245 -102 q-103 -101 -103 -245zM360 1511l167 117l274 -390l-167 -118z" />
<glyph unicode="&#xf3;" d="M96 537q0 227 161 389q162 161 390 161q227 0 389 -161q161 -162 161 -389q0 -228 -161 -390q-162 -161 -389 -161q-228 0 -390 161q-161 162 -161 390zM299 537q0 -144 103 -246q101 -102 245 -102t245 102q102 102 102 246t-102 245q-101 102 -245 102t-245 -102 q-103 -101 -103 -245zM604 1237l273 390l167 -117l-273 -390z" />
<glyph unicode="&#xf4;" d="M96 537q0 227 161 389q162 161 390 161q227 0 389 -161q161 -162 161 -389q0 -228 -161 -390q-162 -161 -389 -161q-228 0 -390 161q-161 162 -161 390zM299 537q0 -144 103 -246q101 -102 245 -102t245 102q102 102 102 246t-102 245q-101 102 -245 102t-245 -102 q-103 -101 -103 -245zM309 1244l336 349l345 -347l-143 -144l-200 200l-192 -198z" />
<glyph unicode="&#xf5;" d="M96 537q0 227 161 389q162 161 390 161q227 0 389 -161q161 -162 161 -389q0 -228 -161 -390q-162 -161 -389 -161q-228 0 -390 161q-161 162 -161 390zM225 1260v203h844v-203h-844zM299 537q0 -144 103 -246q101 -102 245 -102t245 102q102 102 102 246t-102 245 q-101 102 -245 102t-245 -102q-103 -101 -103 -245z" />
<glyph unicode="&#xf6;" d="M96 537q0 227 161 389q162 161 390 161q227 0 389 -161q161 -162 161 -389q0 -228 -161 -390q-162 -161 -389 -161q-228 0 -390 161q-161 162 -161 390zM273 1296q0 53 37 91q38 37 90 37q53 0 91 -37q37 -38 37 -91q0 -52 -37 -90q-38 -37 -91 -37q-52 0 -90 37 q-37 38 -37 90zM299 537q0 -144 103 -246q101 -102 245 -102t245 102q102 102 102 246t-102 245q-101 102 -245 102t-245 -102q-103 -101 -103 -245zM765 1296q0 53 37 91q38 37 90 37q53 0 91 -37q37 -38 37 -91q0 -52 -37 -90q-38 -37 -91 -37q-52 0 -90 37q-37 38 -37 90 z" />
<glyph unicode="&#xf7;" horiz-adv-x="1064" d="M97 407v203h880v-203h-880zM384 172q0 62 43 106q44 43 105 43t105 -43q43 -44 43 -106q0 -61 -43 -105t-105 -44t-105 44t-43 105zM384 852q0 62 43 106q44 43 105 43t105 -43q43 -44 43 -106q0 -61 -43 -105t-105 -44t-105 44t-43 105z" />
<glyph unicode="&#xf8;" horiz-adv-x="1306" d="M112 510q0 223 158 381t381 158q132 0 230 -52l125 178l167 -117l-127 -181q144 -144 144 -367t-158 -381t-381 -158q-120 0 -210 42l-111 -159l-167 117l109 156q-160 146 -160 383zM316 510q0 -137 75 -213l371 530q-39 18 -111 18q-139 0 -236 -99q-99 -97 -99 -236z M562 186q29 -11 89 -11q139 0 236 99q99 97 99 236q0 124 -61 194z" />
<glyph unicode="&#xf9;" horiz-adv-x="1181" d="M144 433v641h203v-641q0 -101 72 -172q71 -72 172 -72t172 72q72 71 72 172v641h203v-1074h-203v57q-103 -69 -244 -71q-184 0 -316 131q-131 132 -131 316zM285 1508l166 117l272 -389l-166 -116z" />
<glyph unicode="&#xfa;" horiz-adv-x="1181" d="M144 433v641h203v-641q0 -101 72 -172q71 -72 172 -72t172 72q72 71 72 172v641h203v-1074h-203v57q-103 -69 -244 -71q-184 0 -316 131q-131 132 -131 316zM489 1236l272 389l167 -117l-273 -388z" />
<glyph unicode="&#xfb;" horiz-adv-x="1178" d="M144 433v641h203v-641q0 -101 72 -172q71 -72 172 -72t172 72q72 71 72 172v641h203v-1074h-203v57q-103 -69 -244 -71q-184 0 -316 131q-131 132 -131 316zM252 1244l337 350l345 -347l-143 -144l-200 200l-193 -199z" />
<glyph unicode="&#xfc;" horiz-adv-x="1178" d="M144 433v641h203v-641q0 -101 72 -172q71 -72 172 -72t172 72q72 71 72 172v641h203v-1074h-203v57q-103 -69 -244 -71q-184 0 -316 131q-131 132 -131 316zM217 1296q0 53 37 91q38 37 90 37q53 0 91 -37q37 -38 37 -91q0 -52 -37 -90q-38 -37 -91 -37q-52 0 -90 37 q-37 38 -37 90zM709 1296q0 53 37 91q38 37 90 37q53 0 91 -37q37 -38 37 -91q0 -52 -37 -90q-38 -37 -91 -37q-52 0 -90 37q-37 38 -37 90z" />
<glyph unicode="&#xfd;" horiz-adv-x="1098" d="M48 1074h220l283 -699l283 699h220l-511 -1263h261v-204h-564l201 495zM452 1236l273 390l167 -117l-273 -389z" />
<glyph unicode="&#xff;" horiz-adv-x="1106" d="M48 1074h220l283 -699l283 699h220l-511 -1263h261v-204h-564l201 495zM179 1293q0 53 37 91q38 37 90 37q53 0 91 -37q37 -38 37 -91q0 -52 -37 -90q-38 -37 -91 -37q-52 0 -90 37q-37 38 -37 90zM671 1293q0 53 37 91q38 37 90 37q53 0 91 -37q37 -38 37 -91 q0 -52 -37 -90q-38 -37 -91 -37q-52 0 -90 37q-37 38 -37 90z" />
<glyph unicode="&#x2c6;" horiz-adv-x="1094" d="M277 1215l267 277l270 -271l-117 -117l-152 150l-149 -154z" />
<glyph unicode="&#x2dc;" horiz-adv-x="1074" d="M127 1260v203h844v-203h-844z" />
<glyph unicode="&#x2000;" horiz-adv-x="922" />
<glyph unicode="&#x2001;" horiz-adv-x="1844" />
<glyph unicode="&#x2002;" horiz-adv-x="922" />
<glyph unicode="&#x2003;" horiz-adv-x="1844" />
<glyph unicode="&#x2004;" horiz-adv-x="614" />
<glyph unicode="&#x2005;" horiz-adv-x="461" />
<glyph unicode="&#x2006;" horiz-adv-x="307" />
<glyph unicode="&#x2007;" horiz-adv-x="307" />
<glyph unicode="&#x2008;" horiz-adv-x="230" />
<glyph unicode="&#x2009;" horiz-adv-x="368" />
<glyph unicode="&#x200a;" horiz-adv-x="102" />
<glyph unicode="&#x2010;" horiz-adv-x="720" d="M117 378v203h487v-203h-487z" />
<glyph unicode="&#x2011;" horiz-adv-x="720" d="M117 378v203h487v-203h-487z" />
<glyph unicode="&#x2012;" horiz-adv-x="720" d="M117 378v203h487v-203h-487z" />
<glyph unicode="&#x2013;" horiz-adv-x="1158" d="M56 394v203h1046v-203h-1046z" />
<glyph unicode="&#x2014;" horiz-adv-x="2098" d="M0 394v203h2097v-203h-2097z" />
<glyph unicode="&#x2018;" horiz-adv-x="430" d="M107 1014h211v210h-107q0 44 31 75t76 31v104q-88 0 -149 -62q-62 -61 -62 -148v-210z" />
<glyph unicode="&#x2019;" horiz-adv-x="430" d="M107 1014q88 0 149 61q62 62 62 148v211h-211v-211h107q0 -43 -31 -74q-31 -32 -76 -32v-103z" />
<glyph unicode="&#x201c;" horiz-adv-x="690" d="M107 1014h211v210h-107q0 44 31 75t76 31v104q-88 0 -149 -62q-62 -61 -62 -148v-210zM371 1014h211v210h-107q0 44 31 75t76 31v104q-88 0 -149 -62q-62 -61 -62 -148v-210z" />
<glyph unicode="&#x201d;" horiz-adv-x="690" d="M107 1014q88 0 149 61q62 62 62 148v211h-211v-211h107q0 -43 -31 -74q-31 -32 -76 -32v-103zM371 1014q88 0 149 61q62 62 62 148v211h-211v-211h107q0 -43 -31 -74q-31 -32 -76 -32v-103z" />
<glyph unicode="&#x2022;" horiz-adv-x="1074" d="M216 718q0 133 94 227q95 93 228 93q132 0 227 -93q93 -95 93 -227t-94 -227q-96 -95 -228 -95q-133 0 -227 94q-93 95 -93 228z" />
<glyph unicode="&#x2026;" horiz-adv-x="2098" d="M156 134q0 53 37 91q38 37 90 37q53 0 91 -37q37 -38 37 -91q0 -52 -37 -90q-38 -37 -91 -37q-52 0 -90 37q-37 38 -37 90zM835 134q0 53 37 91q38 37 90 37q53 0 91 -37q37 -38 37 -91q0 -52 -37 -90q-38 -37 -91 -37q-52 0 -90 37q-37 38 -37 90zM1520 134q0 53 37 91 q38 37 90 37q53 0 91 -37q37 -38 37 -91q0 -52 -37 -90q-38 -37 -91 -37q-52 0 -90 37q-37 38 -37 90z" />
<glyph unicode="&#x202f;" horiz-adv-x="368" />
<glyph unicode="&#x205f;" horiz-adv-x="461" />
<glyph unicode="&#x20ac;" horiz-adv-x="1788" d="M80 466v208h174q-2 14 -2 54q0 41 2 54h-174v208h220q71 203 261 340q194 140 433 140q240 0 434 -140q189 -136 278 -390h-222q-72 153 -201 236q-131 86 -289 86t-289 -86q-128 -83 -177 -186h756v-208h-821q-3 -21 -3 -54t3 -54h821v-208h-756q49 -103 178 -186 q131 -86 288 -86q158 0 289 86q128 83 201 236h222q-89 -253 -278 -389q-195 -141 -434 -141t-433 140q-189 137 -261 340h-220z" />
<glyph unicode="&#x2122;" horiz-adv-x="1129" d="M80 1371v166h425v-166h-129v-372h-166v372h-130zM536 999v547l261 -260l260 260v-547h-166v147l-94 -94l-95 94v-147h-166z" />
</font>
</defs>
</svg>
